<?xml version="1.0" encoding="utf-8"?>
<!-- Generator: Adobe Illustrator 25.1.0, SVG Export Plug-In . SVG Version: 6.00 Build 0)  -->
<svg version="1.1" id="Layer_1" xmlns="http://www.w3.org/2000/svg" xmlns:xlink="http://www.w3.org/1999/xlink" x="0px" y="0px"
	 viewBox="0 0 30 30" style="enable-background:new 0 0 30 30;" xml:space="preserve">
<g>
	<path class="st0" d="M26.23,15.16c-0.06,0.4-0.1,0.81-0.17,1.21c-0.28,1.71-0.94,3.27-1.94,4.68c-0.76,1.07-1.68,1.98-2.76,2.72
		c-0.16,0.11-0.23,0.23-0.23,0.43c0.02,0.59-0.19,1.08-0.75,1.35c-0.21,0.1-0.46,0.14-0.69,0.15c-3.24,0.01-6.48,0.01-9.72,0
		c-0.89,0-1.45-0.56-1.44-1.45c0-0.25-0.09-0.38-0.28-0.52c-2.49-1.79-4.04-4.2-4.62-7.21c-0.12-0.64-0.14-1.29-0.19-1.94
		c-0.03-0.38,0.11-0.5,0.5-0.5c0.31,0,0.62,0,0.91,0c0.11-0.29,0.17-0.6,0.33-0.83c0.2-0.3,0.23-0.55,0.15-0.9
		c-0.2-0.92,0.12-1.68,0.89-2.23C6.35,10.03,6.4,9.94,6.39,9.8c-0.02-1.01,0.6-1.86,1.56-2.15C8.1,7.61,8.16,7.54,8.2,7.41
		c0.29-0.97,1.12-1.58,2.13-1.56c0.15,0,0.24-0.03,0.33-0.16c0.57-0.83,1.56-1.15,2.5-0.82c0.14,0.05,0.24,0.04,0.36-0.05
		c0.79-0.61,1.85-0.61,2.64,0c0.12,0.09,0.22,0.11,0.36,0.06c0.94-0.34,1.94-0.01,2.51,0.81c0.08,0.12,0.17,0.17,0.32,0.17
		c1.01-0.02,1.84,0.59,2.13,1.55c0.04,0.13,0.1,0.21,0.24,0.25c0.97,0.29,1.59,1.14,1.57,2.15c0,0.14,0.03,0.23,0.15,0.31
		c0.84,0.58,1.15,1.57,0.83,2.53c-0.03,0.08-0.04,0.19-0.01,0.24c0.28,0.34,0.44,0.73,0.51,1.19c0.32,0,0.62,0.01,0.93,0
		c0.22-0.01,0.41,0.04,0.53,0.24C26.23,14.59,26.23,14.87,26.23,15.16z M4.16,14.8c0.06,0.51,0.1,1,0.18,1.48
		c0.52,2.88,1.99,5.17,4.36,6.87c0.62,0.44,0.56,0.28,0.57,1.07c0,0.18,0.06,0.38,0.16,0.53c0.12,0.2,0.36,0.2,0.58,0.2
		c3.14,0,6.29-0.01,9.43,0.01c0.77,0,1.03-0.18,0.96-0.97c-0.03-0.34,0.11-0.54,0.39-0.73c2.26-1.53,3.73-3.63,4.4-6.28
		c0.18-0.71,0.29-1.43,0.29-2.19c-0.11,0-0.21,0-0.3,0c-4.95,0-9.91,0-14.86,0c-0.1,0-0.21,0-0.31-0.02
		c-0.18-0.05-0.27-0.18-0.26-0.37c0.01-0.19,0.12-0.3,0.31-0.32c0.1-0.01,0.19-0.01,0.29-0.01c4.46,0,8.91,0,13.37,0
		c0.09,0,0.18,0,0.28,0c-0.03-0.31-0.16-0.57-0.38-0.79c-0.3-0.3-0.31-0.35-0.12-0.73c0.15-0.3,0.19-0.61,0.12-0.93
		c-0.1-0.48-0.38-0.83-0.82-1.04c-0.22-0.1-0.34-0.26-0.28-0.51c0.02-0.12,0.04-0.24,0.03-0.35c-0.04-0.77-0.52-1.29-1.28-1.42
		c-0.3-0.05-0.4-0.13-0.43-0.41c-0.11-0.95-1.01-1.46-1.75-1.29c-0.3,0.07-0.41,0.01-0.53-0.27c-0.35-0.78-1.32-1.1-2.07-0.67
		c-0.25,0.15-0.38,0.13-0.57-0.09c-0.58-0.65-1.61-0.64-2.17-0.01c-0.2,0.23-0.33,0.25-0.59,0.09c-0.74-0.43-1.7-0.11-2.05,0.66
		c-0.13,0.29-0.24,0.35-0.55,0.28C9.83,6.43,8.95,6.94,8.83,7.87C8.8,8.17,8.7,8.27,8.41,8.29C7.65,8.36,6.99,9.1,7.14,9.99
		c0.06,0.38,0.02,0.44-0.32,0.61c-0.73,0.38-1.01,1.21-0.65,1.95c0.18,0.38,0.17,0.42-0.13,0.73c-0.21,0.21-0.34,0.46-0.38,0.79
		c0.1,0,0.18,0,0.26,0c0.85,0,1.69,0,2.54,0c0.07,0,0.15,0,0.22,0.01c0.2,0.02,0.33,0.16,0.34,0.35c0,0.19-0.12,0.33-0.32,0.36
		C8.62,14.8,8.54,14.8,8.47,14.8c-1.34,0-2.68,0-4.03,0C4.36,14.8,4.28,14.8,4.16,14.8z"/>
	<path class="st0" d="M14.82,24.09c-1.42,0-2.83,0-4.25,0c-0.06,0-0.12,0-0.18,0c-0.24-0.02-0.4-0.17-0.4-0.37
		c0-0.19,0.15-0.34,0.38-0.36c0.07-0.01,0.15,0,0.22,0c2.83,0,5.66,0,8.49,0c0.11,0,0.22,0,0.33,0.03c0.17,0.04,0.28,0.18,0.25,0.34
		c-0.02,0.12-0.14,0.24-0.24,0.33c-0.06,0.05-0.18,0.04-0.28,0.04C17.71,24.1,16.26,24.09,14.82,24.09z"/>
	<path class="st0" d="M12.29,8.61c0,0.19-0.16,0.35-0.35,0.36c-0.2,0-0.36-0.15-0.36-0.34c-0.01-0.21,0.16-0.37,0.36-0.37
		C12.13,8.26,12.29,8.42,12.29,8.61z"/>
	<path class="st0" d="M10.47,9.72c0.2-0.01,0.36,0.14,0.37,0.34c0.01,0.2-0.16,0.38-0.36,0.38c-0.19,0-0.35-0.16-0.36-0.36
		C10.12,9.88,10.27,9.72,10.47,9.72z"/>
	<path class="st0" d="M18.7,12.36c-0.19-0.01-0.35-0.18-0.34-0.37c0.01-0.19,0.19-0.35,0.37-0.34c0.2,0.01,0.36,0.18,0.34,0.39
		C19.06,12.23,18.9,12.37,18.7,12.36z"/>
</g>
</svg>
