<?xml version="1.0" encoding="utf-8"?>
<!-- Generator: Adobe Illustrator 25.1.0, SVG Export Plug-In . SVG Version: 6.00 Build 0)  -->
<svg version="1.1" id="Layer_1" xmlns="http://www.w3.org/2000/svg" xmlns:xlink="http://www.w3.org/1999/xlink" x="0px" y="0px"
	 viewBox="0 0 30 30" style="enable-background:new 0 0 30 30;" xml:space="preserve">
<g>
	<path class="st0" d="M26.19,17.57c-0.09,0.36-0.15,0.74-0.27,1.09c-0.35,0.97-1.07,1.6-1.99,2.02c-1.06,0.49-2.2,0.66-3.35,0.67
		c-2.86,0.02-5.71,0.01-8.57,0.01c-0.06,0-0.12,0-0.18-0.01c-0.17-0.03-0.28-0.13-0.29-0.32c0-0.18,0.1-0.29,0.27-0.33
		c0.09-0.02,0.18-0.01,0.27-0.01c2.8,0,5.61,0.01,8.41,0c1.02,0,2.02-0.14,2.98-0.53c1.58-0.64,2.17-1.85,2.03-3.46
		c-0.05-0.62-0.21-1.21-0.43-1.79c-0.04-0.11-0.04-0.29,0.02-0.39c0.14-0.23,0.45-0.17,0.57,0.11c0.25,0.59,0.42,1.2,0.48,1.84
		c0.01,0.07,0.03,0.14,0.04,0.21C26.19,16.98,26.19,17.27,26.19,17.57z"/>
	<path class="st0" d="M22.22,11.51c0,0.92,0,1.79,0,2.67c0,0.41-0.1,0.78-0.37,1.09c-0.27,0.31-0.61,0.49-1.02,0.53
		c-0.37,0.03-0.73,0.03-1.07-0.14c-0.61-0.3-0.88-0.81-0.88-1.48c0-1.34-0.01-2.68,0.01-4.03c0-0.21-0.07-0.29-0.26-0.32
		c-0.72-0.14-1.43-0.29-2.19-0.44c0,0.16,0,0.24,0,0.33c0,1.48,0,2.97,0,4.45c0,0.82-0.41,1.41-1.16,1.58
		c-1.02,0.23-1.86-0.17-2.11-1.1c-0.04-0.17-0.05-0.35-0.05-0.53c0-1.46,0-2.92,0-4.38c0-0.09,0-0.18,0-0.31
		c-0.42,0.06-0.83,0.11-1.22,0.18c-0.34,0.06-0.68,0.16-1.02,0.23c-0.17,0.03-0.2,0.11-0.2,0.27c0.01,1.36,0.01,2.71,0,4.07
		c0,0.8-0.42,1.4-1.16,1.57c-1,0.23-1.83-0.14-2.11-1.05c-0.05-0.17-0.07-0.37-0.07-0.55c-0.01-0.82,0-1.65,0-2.47
		c0-0.04,0-0.08-0.01-0.2c-0.41,0.37-0.81,0.68-1.16,1.03c-0.7,0.72-1.31,1.51-1.69,2.46c-0.34,0.86-0.51,1.75-0.41,2.67
		c0.14,1.2,0.82,1.98,1.9,2.46c0.97,0.43,2.01,0.55,3.06,0.58c0.24,0.01,0.47-0.01,0.71,0c0.21,0.01,0.35,0.15,0.35,0.33
		c0,0.18-0.14,0.32-0.35,0.33C8.37,21.37,7,21.27,5.71,20.7c-1.5-0.66-2.27-1.83-2.3-3.46c-0.03-1.65,0.56-3.08,1.58-4.36
		c1.67-2.09,3.87-3.31,6.46-3.83c2.4-0.49,4.82-0.48,7.21,0.11c2.01,0.49,3.77,1.44,5.24,2.91c0.19,0.19,0.36,0.39,0.54,0.6
		c0.19,0.21,0.2,0.4,0.03,0.54c-0.16,0.13-0.33,0.09-0.52-0.1c-0.49-0.48-0.99-0.96-1.49-1.43C22.39,11.62,22.32,11.58,22.22,11.51z
		 M13.8,9.4c0,0.1,0,0.19,0,0.27c0,1.48,0,2.95,0,4.43c0,0.1,0,0.19,0.01,0.29c0.03,0.28,0.16,0.5,0.4,0.63
		c0.37,0.19,0.76,0.2,1.13,0.01c0.35-0.17,0.45-0.5,0.45-0.88c0-1.51,0-3.01,0-4.52c0-0.08-0.01-0.16-0.01-0.24
		C15.11,9.4,14.47,9.4,13.8,9.4z M19.56,10.09c0,1.39,0,2.7,0,4.01c0,0.74,0.34,1.07,1.09,1.05c0.58-0.02,0.91-0.36,0.91-0.95
		c0-0.84-0.04-1.68,0.01-2.51c0.03-0.5-0.12-0.78-0.58-0.95C20.52,10.55,20.06,10.32,19.56,10.09z M10.03,10.15
		c-0.02-0.02-0.04-0.04-0.06-0.06c-0.61,0.3-1.23,0.61-1.84,0.92c-0.05,0.03-0.09,0.11-0.09,0.17c0,1.05-0.01,2.09,0,3.14
		c0,0.29,0.14,0.54,0.39,0.68c0.37,0.21,0.77,0.21,1.15,0.03c0.35-0.17,0.45-0.5,0.45-0.88c0-1.27,0-2.53,0-3.8
		C10.03,10.29,10.03,10.22,10.03,10.15z"/>
</g>
</svg>
