<?xml version="1.0" encoding="utf-8"?>
<!-- Generator: Adobe Illustrator 25.2.3, SVG Export Plug-In . SVG Version: 6.00 Build 0)  -->
<svg version="1.1" id="레이어_1" xmlns="http://www.w3.org/2000/svg" xmlns:xlink="http://www.w3.org/1999/xlink" x="0px"
	 y="0px" viewBox="0 0 30 30" style="enable-background:new 0 0 30 30;" xml:space="preserve">
<style type="text/css">
	.st1{fill:#FFFFFF;}
</style>
<g>
	<g>
		<path class="st0" d="M14.94,18.48c-2.02,0-3.67-1.64-3.67-3.67s1.64-3.67,3.67-3.67c2.02,0,3.67,1.64,3.67,3.67
			S16.96,18.48,14.94,18.48z M14.94,11.88c-1.62,0-2.94,1.32-2.94,2.93c0,1.62,1.32,2.94,2.94,2.94c1.62,0,2.93-1.32,2.93-2.94
			C17.87,13.2,16.55,11.88,14.94,11.88z"/>
	</g>
	<g>
		<path class="st0" d="M8.33,22.47c-0.09,0-0.17-0.03-0.25-0.09c-2-1.82-3.19-4.3-3.33-7c-0.15-2.72,0.77-5.34,2.59-7.36
			s4.32-3.23,7.04-3.37c1.21-0.07,2.39,0.08,3.54,0.43c0.19,0.06,0.3,0.26,0.24,0.46c-0.06,0.19-0.26,0.3-0.46,0.24
			c-1.06-0.32-2.17-0.46-3.28-0.4C11.9,5.5,9.58,6.61,7.89,8.5c-1.69,1.88-2.54,4.31-2.41,6.84c0.14,2.51,1.23,4.82,3.09,6.5
			c0.15,0.14,0.16,0.37,0.03,0.52C8.53,22.43,8.43,22.47,8.33,22.47z"/>
	</g>
	<g>
		<path class="st0" d="M14.92,25.02c-1.97,0-3.87-0.56-5.53-1.63c-0.17-0.11-0.22-0.34-0.11-0.5c0.11-0.17,0.34-0.22,0.5-0.11
			c1.69,1.09,3.65,1.62,5.66,1.5c2.53-0.14,4.85-1.25,6.54-3.13c1.69-1.88,2.54-4.31,2.41-6.84c-0.13-2.38-1.14-4.61-2.84-6.27
			c-0.25-0.25-0.52-0.48-0.8-0.69c-0.13-0.11-0.27-0.21-0.41-0.3c-0.18-0.12-0.36-0.24-0.55-0.35c-0.17-0.1-0.23-0.33-0.12-0.5
			s0.33-0.23,0.5-0.12c0.2,0.12,0.4,0.25,0.59,0.38c0.15,0.1,0.3,0.21,0.44,0.33c0.3,0.24,0.59,0.49,0.86,0.75
			c1.84,1.79,2.92,4.19,3.06,6.75c0.15,2.72-0.77,5.34-2.59,7.36c-1.82,2.03-4.32,3.23-7.04,3.37
			C15.3,25.01,15.11,25.02,14.92,25.02z"/>
	</g>
	<g>
		<g>
			<path class="st1" d="M11.18,12.12c0.12-0.74,0.81-1.25,1.56-1.16c0.77,0.1,1.31,0.8,1.21,1.57c-0.1,0.77-0.8,1.31-1.57,1.21
				c-0.1-0.01-0.2-0.04-0.29-0.07"/>
			<path class="st0" d="M12.56,14.12c-0.08,0-0.15,0-0.23-0.02c-0.12-0.02-0.25-0.04-0.36-0.09c-0.19-0.07-0.29-0.27-0.22-0.47
				c0.07-0.19,0.27-0.29,0.47-0.22c0.07,0.02,0.14,0.04,0.21,0.05c0.27,0.04,0.54-0.04,0.76-0.21s0.36-0.41,0.39-0.69
				c0.04-0.27-0.04-0.55-0.21-0.76c-0.17-0.22-0.41-0.36-0.69-0.4c-0.56-0.07-1.06,0.3-1.15,0.85c-0.03,0.2-0.21,0.33-0.42,0.3
				c-0.2-0.03-0.33-0.22-0.3-0.42c0.16-0.94,1.02-1.58,1.97-1.46c0.47,0.06,0.88,0.3,1.17,0.67s0.41,0.84,0.35,1.3
				c-0.06,0.47-0.3,0.88-0.67,1.17C13.32,13.99,12.95,14.12,12.56,14.12z"/>
		</g>
		<g>
			<path class="st1" d="M13.04,11.98c0.09,0.12,0.14,0.28,0.12,0.45c-0.02,0.16-0.11,0.3-0.23,0.4"/>
			<path class="st0" d="M13.09,13.03l-0.31-0.39c0.07-0.06,0.12-0.14,0.13-0.23c0.01-0.09-0.01-0.19-0.07-0.26l0.4-0.3
				c0.14,0.18,0.2,0.41,0.17,0.63C13.38,12.69,13.27,12.89,13.09,13.03z"/>
		</g>
		<g>
			<circle class="st1" cx="10.71" cy="13.44" r="1.4"/>
			<path class="st0" d="M10.71,15.2c-0.97,0-1.76-0.79-1.76-1.76s0.79-1.76,1.76-1.76s1.76,0.79,1.76,1.76S11.68,15.2,10.71,15.2z
				 M10.71,12.41c-0.57,0-1.03,0.46-1.03,1.03s0.46,1.03,1.03,1.03s1.03-0.46,1.03-1.03S11.28,12.41,10.71,12.41z"/>
		</g>
		<g>
			<path class="st1" d="M11.31,13.44c0,0.33-0.27,0.59-0.59,0.59"/>
			<path class="st0" d="M10.71,14.28v-0.5c0.19,0,0.34-0.15,0.34-0.34h0.5C11.56,13.91,11.18,14.28,10.71,14.28z"/>
		</g>
	</g>
	<g>
		<g>
			<path class="st1" d="M14.23,27.24c-0.26,0-0.47-0.08-0.49-0.08c-0.11-0.04-0.17-0.15-0.16-0.27l2.66-20.19
				c0.01-0.07,0.05-0.14,0.11-0.18c0.04-0.03,0.17-0.06,0.21-0.06c0.13,0,0.24,0.06,0.27,0.08c0.08,0.05,0.12,0.14,0.11,0.24
				L14.67,27c-0.01,0.11-0.09,0.2-0.2,0.22C14.39,27.23,14.31,27.24,14.23,27.24z"/>
		</g>
		<g>
			<path class="st0" d="M16.56,6.71c0.07,0,0.13,0.04,0.13,0.04l-2.27,20.23c-0.06,0.01-0.13,0.02-0.19,0.02
				c-0.22,0-0.4-0.07-0.4-0.07l2.66-20.19C16.51,6.71,16.54,6.71,16.56,6.71 M16.56,6.21c-0.12,0-0.25,0.04-0.35,0.1
				c-0.12,0.08-0.21,0.21-0.22,0.36l-2.66,20.19c-0.03,0.23,0.1,0.45,0.32,0.53c0.04,0.02,0.28,0.1,0.58,0.1
				c0.09,0,0.19-0.01,0.29-0.03c0.21-0.04,0.38-0.22,0.4-0.43L17.19,6.8c0.02-0.19-0.06-0.37-0.22-0.47
				C16.91,6.29,16.76,6.21,16.56,6.21L16.56,6.21z"/>
		</g>
	</g>
	<g>
		<g>
			<path class="st1" d="M18.25,27.34c-0.21,0-0.36-0.04-0.38-0.05c-0.11-0.03-0.18-0.13-0.18-0.24l0.2-20.32
				c0-0.08,0.04-0.15,0.09-0.19c0.04-0.03,0.19-0.08,0.25-0.08c0.12,0,0.21,0.05,0.23,0.06c0.08,0.04,0.13,0.13,0.13,0.22
				l0.19,20.32c0,0.11-0.07,0.21-0.18,0.24C18.49,27.32,18.37,27.34,18.25,27.34z"/>
		</g>
		<g>
			<path class="st0" d="M18.23,6.71c0.06,0,0.12,0.03,0.12,0.03l0.19,20.32c-0.1,0.03-0.2,0.04-0.29,0.04
				c-0.18,0-0.31-0.04-0.31-0.04l0.2-20.32C18.16,6.71,18.19,6.71,18.23,6.71 M18.23,6.21c-0.15,0-0.29,0.05-0.4,0.14
				c-0.12,0.09-0.19,0.24-0.19,0.39l-0.2,20.32c0,0.22,0.15,0.42,0.36,0.49c0.03,0.01,0.21,0.06,0.45,0.06
				c0.15,0,0.29-0.02,0.43-0.06c0.22-0.06,0.36-0.26,0.36-0.48L18.84,6.73c0-0.18-0.1-0.35-0.26-0.43
				C18.53,6.27,18.39,6.21,18.23,6.21L18.23,6.21z"/>
		</g>
	</g>
</g>
<path class="st0" d="M10.96,20.89c-0.1,0.19-0.18,0.32-0.26,0.46c-0.02,0.03-0.02,0.07-0.04,0.12c-1.86-1.11-3.02-2.67-3.51-4.77
	c0.18-0.04,0.34-0.07,0.5-0.11c0.14-0.03,0.14,0.09,0.16,0.17c0.15,0.65,0.4,1.25,0.75,1.82c0.56,0.93,1.31,1.68,2.25,2.24
	C10.85,20.86,10.9,20.87,10.96,20.89z"/>
<path class="st0" d="M6.91,15.49c0.19-0.04,0.38-0.08,0.58-0.12c0.04,0.19,0.08,0.38,0.12,0.58c-0.19,0.04-0.37,0.08-0.58,0.12
	C7,15.89,6.96,15.7,6.91,15.49z"/>
<path class="st0" d="M20.73,10.62c0.17-0.13,0.3-0.23,0.42-0.32c0.03-0.02,0.05-0.05,0.09-0.1c1.27,1.75,1.71,3.65,1.33,5.77
	c-0.18-0.04-0.34-0.07-0.51-0.1c-0.14-0.03-0.09-0.13-0.08-0.21c0.12-0.65,0.13-1.31,0.04-1.97c-0.15-1.08-0.54-2.06-1.17-2.95
	C20.82,10.7,20.78,10.67,20.73,10.62z"/>
<path class="st0" d="M22.31,17.19c-0.19-0.04-0.38-0.08-0.58-0.12c0.04-0.19,0.08-0.38,0.12-0.58c0.19,0.04,0.37,0.08,0.58,0.12
	C22.39,16.79,22.35,16.98,22.31,17.19z"/>
</svg>
