<?xml version="1.0" encoding="utf-8"?>
<!-- Generator: Adobe Illustrator 25.1.0, SVG Export Plug-In . SVG Version: 6.00 Build 0)  -->
<svg version="1.1" id="Layer_1" xmlns="http://www.w3.org/2000/svg" xmlns:xlink="http://www.w3.org/1999/xlink" x="0px" y="0px"
	 viewBox="0 0 30 30" style="enable-background:new 0 0 30 30;" xml:space="preserve">
<style type="text/css">

</style>
<g>
	<path class="st0" d="M25.39,14.62c-0.06,0.42-0.09,0.84-0.17,1.26c-0.35,1.93-1.1,3.67-2.52,5.06c-0.31,0.3-0.66,0.55-1.01,0.84
		c-0.13-0.21-0.23-0.37-0.34-0.55c0.16-0.12,0.32-0.23,0.48-0.35c1-0.79,1.68-1.82,2.17-2.99c0.68-1.65,0.98-3.36,0.68-5.12
		c-0.51-3-2.21-5.13-5.07-6.14c-3.14-1.11-5.95-0.37-8.31,1.99c-0.06,0.06-0.11,0.17-0.24,0.09c-0.87-0.5-1.74-0.36-2.59,0.07
		c-0.54,0.27-1,0.65-1.43,1.11c-0.16-0.14-0.3-0.27-0.47-0.41C7.2,8.77,7.93,8.23,8.83,7.94c0.69-0.22,1.38-0.24,2.07,0
		c0.06,0.02,0.17-0.01,0.22-0.06c1.16-1.1,2.52-1.86,4.09-2.16c3.14-0.6,5.83,0.27,8.01,2.61c1.14,1.22,1.8,2.69,2.07,4.34
		c0.04,0.23,0.06,0.46,0.1,0.7C25.39,13.78,25.39,14.2,25.39,14.62z"/>
	<path class="st0" d="M12.04,17.33c0.12-0.16,0.24-0.31,0.37-0.48c1.11,0.8,2.32,1.05,3.63,0.67c0.97-0.28,1.73-0.87,2.27-1.73
		c1.07-1.71,0.7-3.95-0.85-5.24c-1.56-1.29-3.81-1.23-5.31,0.13c-1.53,1.39-1.86,3.99-0.21,5.76c-0.13,0.14-0.26,0.28-0.39,0.42
		c-1.29-1.15-1.95-3.73-0.52-5.82c1.48-2.19,4.47-2.71,6.6-1.16c2.13,1.56,2.56,4.56,0.93,6.64C16.9,18.65,13.94,18.83,12.04,17.33z
		"/>
	<path class="st0" d="M5.92,23.45c0.13-0.16,0.25-0.31,0.37-0.47c0.06,0.04,0.11,0.07,0.16,0.11c1.64,1.17,3.83,1.07,5.36-0.25
		c0.45-0.39,0.93-0.74,1.48-1c0.94-0.44,1.9-0.37,2.88-0.16c0.59,0.13,1.18,0.25,1.78,0.31c0.9,0.09,1.77-0.1,2.61-0.42
		c0.08-0.03,0.15-0.06,0.25-0.1c0.08,0.19,0.16,0.37,0.24,0.57c-0.63,0.27-1.27,0.45-1.93,0.54c-1.03,0.14-2.02-0.05-3.01-0.27
		c-0.61-0.14-1.23-0.25-1.86-0.13c-0.73,0.14-1.33,0.51-1.87,0.99c-0.73,0.65-1.55,1.08-2.52,1.26C8.52,24.7,6.88,24.3,5.92,23.45z"
		/>
	<path class="st0" d="M5.85,22.56c-0.14,0.15-0.28,0.3-0.42,0.46c-0.7-0.73-1.13-1.58-1.32-2.55c-0.3-1.56,0.28-2.83,1.32-3.94
		c0.18-0.2,0.38-0.39,0.54-0.61c0.26-0.35,0.28-0.73,0.09-1.12c-0.06-0.12-0.12-0.25-0.2-0.37c-0.77-1.21-0.73-2.45-0.13-3.71
		c0.09-0.19,0.2-0.36,0.3-0.55c0.03-0.05,0.07-0.1,0.12-0.17c0.17,0.12,0.33,0.23,0.45,0.32c-0.2,0.48-0.43,0.93-0.58,1.4
		c-0.24,0.79-0.14,1.55,0.29,2.26c0.11,0.18,0.22,0.37,0.31,0.57c0.28,0.59,0.24,1.17-0.14,1.7c-0.18,0.26-0.41,0.49-0.63,0.72
		c-0.59,0.62-1.04,1.33-1.17,2.19c-0.17,1.16,0.19,2.19,0.9,3.11C5.68,22.37,5.77,22.47,5.85,22.56z"/>
	<path class="st0" d="M20.96,9.37c0.14-0.16,0.25-0.28,0.35-0.4c0.02-0.03,0.04-0.06,0.06-0.11c1.59,1.47,2.4,3.24,2.44,5.4
		c-0.19,0-0.35,0-0.52,0c-0.15,0-0.12-0.11-0.12-0.19c-0.01-0.67-0.14-1.31-0.35-1.94c-0.36-1.03-0.93-1.92-1.73-2.66
		C21.07,9.43,21.02,9.41,20.96,9.37z"/>
	<path class="st0" d="M14.9,10.58c1.06-0.09,2.49,0.6,2.97,2.52c-0.1,0.03-0.19,0.06-0.29,0.08c-0.09,0.02-0.19,0.04-0.3,0.07
		c-0.05-0.13-0.08-0.26-0.13-0.38c-0.33-0.86-0.88-1.48-1.83-1.66c-0.14-0.03-0.38-0.02-0.4-0.08C14.87,10.97,14.9,10.77,14.9,10.58
		z"/>
	<path class="st0" d="M5.59,19.58c0.22,0,0.41,0,0.62,0c0.03,0.91,0.37,1.67,1.04,2.29c-0.13,0.15-0.26,0.3-0.41,0.47
		C6.03,21.6,5.62,20.69,5.59,19.58z"/>
	<path class="st0" d="M13.66,10.57c0.21,0,0.4,0,0.6,0c0,0.2,0,0.39,0,0.6c-0.2,0-0.39,0-0.6,0C13.66,10.97,13.66,10.78,13.66,10.57
		z"/>
	<path class="st0" d="M23.8,15.5c-0.19,0-0.39,0-0.59,0c0-0.2,0-0.39,0-0.6c0.19,0,0.38,0,0.59,0C23.8,15.09,23.8,15.29,23.8,15.5z"
		/>
	<path class="st0" d="M5.6,18.33c0.21,0,0.4,0,0.6,0c0,0.2,0,0.39,0,0.6c-0.2,0-0.39,0-0.6,0C5.6,18.73,5.6,18.54,5.6,18.33z"/>
</g>
</svg>
