<?xml version="1.0" encoding="utf-8"?>
<!-- Generator: Adobe Illustrator 25.1.0, SVG Export Plug-In . SVG Version: 6.00 Build 0)  -->
<svg version="1.1" id="Layer_1" xmlns="http://www.w3.org/2000/svg" xmlns:xlink="http://www.w3.org/1999/xlink" x="0px" y="0px"
	 viewBox="0 0 30 30" style="enable-background:new 0 0 30 30;" xml:space="preserve">
<g>
	<path class="st0" d="M11.98,24.77c-0.48-0.1-0.94-0.26-1.36-0.52c-0.78-0.49-1.41-1.13-1.96-1.85c-1.02-1.34-1.77-2.83-2.2-4.47
		c-0.41-1.56-0.38-3.11,0.22-4.62c0.66-1.66,1.77-2.86,3.52-3.4c0.75-0.23,1.52-0.18,2.28-0.05c0.32,0.06,0.64,0.14,0.96,0.21
		c0.26,0.06,0.37,0.21,0.33,0.42c-0.04,0.2-0.22,0.29-0.48,0.25c-0.5-0.09-1-0.2-1.51-0.27c-1.15-0.15-2.15,0.24-3.01,0.99
		c-1.15,1-1.69,2.3-1.86,3.79c-0.15,1.38,0.17,2.67,0.69,3.93c0.57,1.37,1.33,2.62,2.38,3.68c0.41,0.42,0.88,0.77,1.41,1.02
		c0.68,0.32,1.38,0.24,2.06,0.05c0.83-0.23,1.65-0.23,2.48,0c0.69,0.19,1.39,0.26,2.08-0.06c0.51-0.24,0.96-0.57,1.35-0.97
		c1.57-1.61,2.58-3.53,3.03-5.73c0.28-1.37,0.12-2.71-0.47-4c-0.04-0.09-0.08-0.19-0.07-0.28c0.01-0.16,0.1-0.27,0.27-0.3
		c0.19-0.03,0.33,0.05,0.39,0.22c0.18,0.48,0.38,0.95,0.5,1.44c0.35,1.43,0.22,2.84-0.24,4.22c-0.62,1.87-1.56,3.55-2.97,4.94
		c-0.61,0.6-1.3,1.09-2.15,1.28c-0.09,0.02-0.18,0.04-0.27,0.06c-0.24,0-0.47,0-0.71,0c-0.13-0.02-0.26-0.04-0.38-0.06
		c-0.4-0.08-0.8-0.18-1.21-0.26c-0.81-0.14-1.56,0.24-2.35,0.32C12.47,24.77,12.22,24.77,11.98,24.77z"/>
	<path class="st0" d="M15.04,11.8c0.26-0.08,0.53-0.15,0.79-0.26c0.1-0.04,0.19-0.17,0.24-0.28c0.08-0.17,0.23-0.27,0.41-0.23
		c0.17,0.04,0.28,0.2,0.26,0.39c-0.03,0.27-0.17,0.47-0.38,0.62c-0.49,0.35-1.06,0.44-1.65,0.44c-0.54,0.01-1.06-0.07-1.54-0.34
		c-0.29-0.16-0.52-0.38-0.53-0.75c-0.01-0.19,0.1-0.33,0.27-0.36c0.17-0.03,0.34,0.05,0.38,0.23c0.05,0.19,0.17,0.28,0.33,0.33
		c0.21,0.08,0.43,0.13,0.71,0.21c-0.07-0.45-0.12-0.85-0.2-1.24c-0.15-0.76-0.4-1.49-0.73-2.2c-0.02-0.04-0.04-0.08-0.05-0.13
		c-0.07-0.2,0-0.37,0.17-0.45c0.17-0.08,0.36-0.02,0.45,0.17c0.14,0.28,0.26,0.57,0.38,0.86c0.05,0.12,0.09,0.25,0.14,0.39
		c0.05-0.06,0.08-0.1,0.11-0.15c0.37-0.58,0.77-1.15,1.06-1.79c0.37-0.82,0.91-1.51,1.66-2.03c0.53-0.36,1.11-0.58,1.74-0.6
		c0.47-0.02,0.94,0.01,1.41,0.03c0.26,0.01,0.4,0.16,0.38,0.38c-0.02,0.2-0.18,0.32-0.43,0.31c-0.37-0.01-0.75-0.03-1.12-0.04
		c-0.87-0.02-1.57,0.36-2.16,0.97c-0.38,0.39-0.68,0.85-0.92,1.36c0.85,0.42,1.68,0.89,2.55,1.26c1.48,0.62,2.72,0.02,3.57-1.02
		c0.48-0.59,0.8-1.27,1.02-2c0.01-0.04,0.02-0.09,0.03-0.15c-0.62,0.08-1.2-0.05-1.78-0.17c-0.04-0.01-0.09-0.02-0.13-0.03
		c-0.22-0.06-0.33-0.23-0.29-0.42c0.05-0.19,0.23-0.29,0.45-0.25c0.28,0.05,0.57,0.11,0.85,0.16c0.43,0.08,0.84,0.07,1.24-0.16
		c0.28-0.16,0.54,0.06,0.49,0.39c-0.12,0.72-0.35,1.4-0.68,2.04c-0.41,0.79-0.95,1.47-1.71,1.96c-1.01,0.64-2.09,0.75-3.2,0.32
		C18,9.34,17.41,8.99,16.8,8.69c-0.23-0.12-0.47-0.23-0.7-0.35c-0.11-0.06-0.19-0.03-0.26,0.08C15.49,8.95,15.14,9.47,14.8,10
		c-0.03,0.05-0.06,0.11-0.05,0.16C14.84,10.69,14.93,11.22,15.04,11.8z"/>
	<path class="st0" d="M17.74,9.75c1.81,0.01,3.02,0.72,4,1.88c0.14,0.16,0.11,0.37-0.03,0.49c-0.14,0.12-0.33,0.1-0.49-0.05
		c-0.3-0.28-0.58-0.59-0.9-0.84c-0.86-0.66-1.85-0.91-2.93-0.74c-0.56,0.09-1.11,0.21-1.66,0.32c-0.07,0.01-0.14,0.02-0.21,0.03
		c-0.21,0.01-0.36-0.1-0.39-0.28c-0.03-0.19,0.09-0.35,0.3-0.39c0.34-0.07,0.68-0.15,1.02-0.21C16.96,9.87,17.47,9.8,17.74,9.75z"/>
</g>
</svg>
