<?xml version="1.0" encoding="utf-8"?>
<!-- Generator: Adobe Illustrator 25.1.0, SVG Export Plug-In . SVG Version: 6.00 Build 0)  -->
<svg version="1.1" id="Layer_1" xmlns="http://www.w3.org/2000/svg" xmlns:xlink="http://www.w3.org/1999/xlink" x="0px" y="0px"
	 viewBox="0 0 30 30" style="enable-background:new 0 0 30 30;" xml:space="preserve">
<g>
	<path class="st0" d="M14.4,25.78c-0.2-0.07-0.42-0.12-0.6-0.22c-0.7-0.37-1.06-0.99-1.16-1.77c-0.07-0.58-0.13-1.17-0.22-1.75
		c-0.03-0.18-0.13-0.35-0.23-0.51c-0.31-0.46-0.73-0.77-1.26-0.93c-0.45-0.14-0.88-0.32-1.25-0.62c-0.16-0.13-0.19-0.3-0.1-0.44
		c0.1-0.16,0.29-0.2,0.46-0.07c0.35,0.27,0.75,0.41,1.16,0.56c0.37,0.13,0.7,0.36,1.06,0.54c-0.02-0.18-0.03-0.4-0.06-0.61
		c-0.22-2.25-0.44-4.5-0.4-6.76c0.01-0.4,0.07-0.79,0.12-1.19c0.01-0.1,0.06-0.2,0.1-0.29c0.17-0.34,0.52-0.41,0.8-0.15
		c0.15,0.15,0.3,0.32,0.39,0.52c0.37,0.85,0.76,1.7,1.05,2.58c0.55,1.68,1.05,3.37,1.56,5.06c0.02,0.06,0.04,0.13,0.07,0.22
		c0.05-0.08,0.07-0.13,0.11-0.18c0.24-0.29,0.45-0.62,0.74-0.84c1.05-0.78,1.43-2.24,0.97-3.45c-0.27-0.72-0.26-1.4,0.07-2.1
		c0.53-1.12,0.25-3.07-1.65-3.63c-0.97-0.29-1.62-0.88-1.99-1.82c-0.26-0.69-0.65-1.3-1.21-1.79c-0.19-0.16-0.4-0.31-0.62-0.43
		c-0.74-0.38-1.48-0.23-2.02,0.4C9.78,6.73,9.57,7.48,9.49,8.27C9.45,8.64,9.46,9.02,9.41,9.4c-0.09,0.7-0.43,1.26-0.97,1.71
		c-0.06,0.05-0.12,0.1-0.18,0.15C7,12.29,6.91,14.1,8.09,15.24c0.55,0.53,0.84,1.14,0.82,1.9c0,0.17,0.01,0.35,0.06,0.52
		c0.09,0.31,0.2,0.61,0.32,0.9c0.1,0.24,0.08,0.41-0.11,0.5c-0.17,0.09-0.33,0.01-0.45-0.21c-0.28-0.53-0.46-1.09-0.45-1.68
		c0.01-0.6-0.2-1.07-0.64-1.49c-1.12-1.08-1.34-2.88-0.51-4.11c0.21-0.31,0.49-0.6,0.78-0.84c0.6-0.49,0.91-1.09,0.91-1.87
		c0-0.88,0.16-1.74,0.57-2.53c0.39-0.73,0.92-1.3,1.78-1.43c0.33-0.05,0.68,0.02,1.01,0.06c0.12,0.01,0.18,0,0.28-0.06
		c0.31-0.19,0.61-0.39,0.95-0.52c0.52-0.19,1.06-0.14,1.54,0.13c0.38,0.22,0.73,0.49,1.08,0.75c0.08,0.06,0.16,0.14,0.22,0.19
		c0.28-0.15,0.53-0.32,0.81-0.43c0.83-0.33,1.6-0.2,2.29,0.38c0.35,0.29,0.6,0.67,0.79,1.08c0.09,0.19,0.03,0.36-0.14,0.45
		c-0.16,0.08-0.32,0.02-0.42-0.16c-0.12-0.2-0.23-0.42-0.38-0.6c-0.66-0.83-1.62-0.92-2.42-0.23c-0.46,0.39-0.8,0.88-1.11,1.39
		c-0.17,0.29-0.32,0.59-0.5,0.87c-0.08,0.13-0.05,0.21,0.05,0.3c0.29,0.29,0.63,0.48,1.02,0.6c0.61,0.18,1.16,0.46,1.58,0.95
		c0.9,1.08,1.06,2.29,0.54,3.57c-0.23,0.56-0.26,1.06-0.05,1.62c0.56,1.49,0.11,3.1-1.12,4.11c-0.48,0.4-0.79,0.89-0.93,1.5
		c-0.07,0.32,0.03,0.6,0.12,0.92c0.05-0.09,0.08-0.15,0.11-0.21c0.43-0.77,1.04-1.32,1.89-1.6c1.3-0.41,2.14-1.51,2.16-2.88
		c0.01-0.75,0.27-1.35,0.81-1.86c0.95-0.89,1.37-2.82-0.22-4.05c-0.75-0.58-1.14-1.34-1.13-2.3c0-0.29-0.04-0.57-0.07-0.86
		c-0.02-0.24,0.07-0.4,0.26-0.42c0.2-0.03,0.33,0.1,0.36,0.34c0.03,0.32,0.07,0.64,0.07,0.96c0,0.73,0.29,1.31,0.86,1.76
		c0.5,0.39,0.91,0.85,1.12,1.46c0.45,1.32,0.16,2.51-0.79,3.5c-0.42,0.44-0.64,0.9-0.66,1.52c-0.06,1.71-1.18,3.03-2.59,3.42
		c-0.51,0.14-0.9,0.47-1.23,0.87c-0.15,0.18-0.27,0.37-0.4,0.56c-0.26,0.37-0.34,0.74-0.22,1.21c0.29,1.18-0.42,2.35-1.65,2.51
		c-0.02,0-0.04,0.02-0.06,0.03C14.82,25.78,14.61,25.78,14.4,25.78z M12.57,12.21c-0.02,0.01-0.04,0.01-0.06,0.02
		c-0.02,0.12-0.04,0.23-0.05,0.35c-0.11,1.31-0.03,2.61,0.07,3.92c0.12,1.62,0.28,3.23,0.44,4.84c0.09,0.88,0.2,1.75,0.34,2.62
		c0.13,0.83,0.86,1.32,1.66,1.16c0.83-0.17,1.36-0.92,1.16-1.72c-0.48-1.85-0.98-3.7-1.5-5.54c-0.47-1.63-0.98-3.25-1.64-4.81
		C12.86,12.77,12.71,12.49,12.57,12.21z M15.8,5.85c-0.33-0.23-0.67-0.5-1.05-0.72c-0.63-0.37-1.22-0.21-1.79,0.2
		c0.86,0.56,1.33,1.41,1.75,2.27C15.06,7.02,15.41,6.46,15.8,5.85z"/>
</g>
</svg>
