<?xml version="1.0" encoding="utf-8"?>
<!-- Generator: Adobe Illustrator 25.2.3, SVG Export Plug-In . SVG Version: 6.00 Build 0)  -->
<svg version="1.1" id="레이어_1" xmlns="http://www.w3.org/2000/svg" xmlns:xlink="http://www.w3.org/1999/xlink" x="0px"
	 y="0px" viewBox="0 0 30 30" style="enable-background:new 0 0 30 30;" xml:space="preserve">
<g>
	<g>
		<path class="st0" d="M14.13,13.93c-0.09,0-0.17-0.03-0.24-0.1c-0.14-0.13-0.15-0.35-0.01-0.49l0.88-0.93
			c0.13-0.14,0.35-0.15,0.5-0.01c0.14,0.13,0.15,0.35,0.01,0.49l-0.88,0.93C14.31,13.89,14.22,13.93,14.13,13.93z"/>
	</g>
	<g>
		<path class="st0" d="M11.37,16.77c-0.09,0-0.17-0.03-0.24-0.09c-0.14-0.13-0.15-0.35-0.01-0.5l1.65-1.75
			c0.13-0.14,0.35-0.15,0.5-0.01c0.14,0.13,0.15,0.35,0.01,0.49l-1.65,1.75C11.55,16.73,11.46,16.77,11.37,16.77z"/>
	</g>
	<g>
		<path class="st0" d="M12.01,18.49c-0.09,0-0.17-0.03-0.24-0.09c-0.14-0.13-0.15-0.35-0.01-0.5l4.81-5.1
			c0.13-0.14,0.35-0.15,0.5-0.01c0.14,0.13,0.15,0.35,0.01,0.49l-4.81,5.1C12.19,18.46,12.1,18.49,12.01,18.49z"/>
	</g>
	<g>
		<path class="st0" d="M13.72,19.32c-0.09,0-0.17-0.03-0.24-0.09c-0.14-0.13-0.15-0.35-0.01-0.5l2.58-2.74
			c0.13-0.14,0.35-0.15,0.5-0.01c0.14,0.13,0.15,0.35,0.01,0.49l-2.58,2.74C13.9,19.28,13.81,19.32,13.72,19.32z"/>
	</g>
	<g>
		<path class="st0" d="M8.13,18.64c-0.04,0-0.07-0.01-0.11-0.02c-0.18-0.06-0.28-0.26-0.22-0.44c1.09-3.25,0.03-5.87,0.02-5.89
			c-0.07-0.18,0.01-0.38,0.19-0.46c0.18-0.08,0.38,0.01,0.46,0.19c0.05,0.12,1.18,2.87,0,6.39C8.41,18.54,8.28,18.64,8.13,18.64z"/>
	</g>
	<g>
		<path class="st0" d="M17.25,10.06c-0.06,0-0.12-0.02-0.18-0.05c-0.13-0.08-0.27-0.16-0.4-0.23c-0.17-0.09-0.23-0.3-0.14-0.47
			c0.09-0.17,0.31-0.23,0.47-0.14c0.15,0.08,0.29,0.16,0.43,0.25c0.17,0.1,0.22,0.32,0.12,0.48C17.48,10,17.36,10.06,17.25,10.06z"
			/>
	</g>
	<g>
		<path class="st0" d="M12.36,22.77c-1.04,0-2.06-0.16-3.04-0.48c-0.29-0.09-0.58-0.2-0.85-0.32c-0.18-0.08-0.26-0.28-0.18-0.46
			c0.08-0.18,0.29-0.26,0.46-0.18c0.26,0.11,0.52,0.21,0.79,0.3c0.91,0.29,1.86,0.45,2.83,0.45c2.65,0,5.18-1.16,6.92-3.17
			c0.13-0.14,0.35-0.16,0.49-0.04c0.45,0.39,0.96,0.71,1.51,0.96c1.98,0.91,4.16,0.74,5.36-0.4c0.06-1.36-0.85-2.86-2.33-3.83
			c-0.1-0.06-0.16-0.17-0.16-0.29c0-0.12,0.06-0.23,0.16-0.29c1.49-0.98,2.39-2.46,2.33-3.83c-1.2-1.13-3.39-1.3-5.37-0.4
			c-0.59,0.27-1.12,0.61-1.59,1.03c-0.14,0.13-0.37,0.12-0.49-0.03c-0.43-0.48-0.91-0.92-1.42-1.3c-0.16-0.11-0.19-0.33-0.07-0.49
			c0.12-0.16,0.33-0.19,0.49-0.07c0.46,0.34,0.9,0.72,1.3,1.14c0.46-0.37,0.96-0.68,1.5-0.92c2.27-1.04,4.81-0.79,6.21,0.6
			c0.08,0.06,0.13,0.15,0.14,0.25c0.13,1.52-0.73,3.17-2.23,4.32c1.49,1.14,2.34,2.73,2.23,4.25c0.01,0.1-0.03,0.19-0.09,0.26
			c-1.38,1.43-3.95,1.69-6.25,0.64c-0.5-0.23-0.98-0.51-1.41-0.85C17.72,21.63,15.1,22.77,12.36,22.77z"/>
	</g>
	<g>
		<path class="st0" d="M6.37,20.66c-0.08,0-0.16-0.03-0.22-0.08c-1.63-1.33-2.79-3.09-3.33-5.12c-0.02-0.09-0.01-0.18,0.03-0.26
			c1.19-4.24,5.09-7.19,9.5-7.19c1.29,0,2.53,0.24,3.71,0.73c0.18,0.07,0.27,0.28,0.19,0.46s-0.28,0.26-0.46,0.19
			c-1.1-0.45-2.26-0.67-3.45-0.67c-4.1,0-7.72,2.74-8.83,6.68c0.51,1.83,1.57,3.44,3.06,4.64c0.15,0.12,0.17,0.34,0.05,0.49
			C6.58,20.61,6.47,20.66,6.37,20.66z"/>
	</g>
</g>
</svg>
